inDegrees=no
num_controls=7
num_derivatives=13
num_iterations=136
num_multipliers=7
num_parameters=0
num_slacks=7
num_states=26
objective=5.245962
objective_accelerations=0.467256
objective_balance=0.077872
objective_effort=0.415784
objective_height=4.202657
objective_ligament=0.082393
solver_duration=1600.457673
status=Solve_Succeeded
success=true
DataType=double
version=3
OpenSimVersion=4.4-2022-07-23-0e9fedc
endheader
time	/jointset/ground_pelvis/pelvis_tilt/value	/jointset/ground_pelvis/pelvis_tx/value	/jointset/ground_pelvis/pelvis_ty/value	/jointset/hip_l/hip_flexion_l/value	/jointset/hip_l/hip_adduction_l/value	/jointset/hip_l/hip_rotation_l/value	/jointset/back/lumbar_extension/value	/jointset/patellofemoral_l/patellar_flexion_l/value	/jointset/knee_l/knee_flexion_l/value	/jointset/knee_l/knee_adduction_l/value	/jointset/knee_l/knee_rotation_l/value	/jointset/ankle_l/ankle_angle_l/value	/jointset/subtalar_l/subtalar_angle_l/value	/jointset/ground_pelvis/pelvis_tilt/speed	/jointset/ground_pelvis/pelvis_tx/speed	/jointset/ground_pelvis/pelvis_ty/speed	/jointset/hip_l/hip_flexion_l/speed	/jointset/hip_l/hip_adduction_l/speed	/jointset/hip_l/hip_rotation_l/speed	/jointset/back/lumbar_extension/speed	/jointset/patellofemoral_l/patellar_flexion_l/speed	/jointset/knee_l/knee_flexion_l/speed	/jointset/knee_l/knee_adduction_l/speed	/jointset/knee_l/knee_rotation_l/speed	/jointset/ankle_l/ankle_angle_l/speed	/jointset/subtalar_l/subtalar_angle_l/speed	/forceset/tau_hip_flexion_l	/forceset/tau_hip_adduction_l	/forceset/tau_hip_rotation_l	/forceset/tau_knee_flexion_l	/forceset/tau_ankle_angle_l	/forceset/tau_subtalar_angle_l	/forceset/tau_lumbar_extension	lambda_cid13_p0	lambda_cid13_p1	lambda_cid13_p2	lambda_cid13_p3	lambda_cid13_p4	lambda_cid13_p5	lambda_cid14_p0	/jointset/ground_pelvis/pelvis_tilt/accel	/jointset/ground_pelvis/pelvis_tx/accel	/jointset/ground_pelvis/pelvis_ty/accel	/jointset/hip_l/hip_flexion_l/accel	/jointset/hip_l/hip_adduction_l/accel	/jointset/hip_l/hip_rotation_l/accel	/jointset/back/lumbar_extension/accel	/jointset/patellofemoral_l/patellar_flexion_l/accel	/jointset/knee_l/knee_flexion_l/accel	/jointset/knee_l/knee_adduction_l/accel	/jointset/knee_l/knee_rotation_l/accel	/jointset/ankle_l/ankle_angle_l/accel	/jointset/subtalar_l/subtalar_angle_l/accel	gamma_cid13_p0	gamma_cid13_p1	gamma_cid13_p2	gamma_cid13_p3	gamma_cid13_p4	gamma_cid13_p5	gamma_cid14_p0
1.5	-0.4478453379791773	-0.07435729284896495	0.7828434999831951	1.186318064333854	-0.3079783294780621	-0.09014184737587226	-0.3369994663472165	0.5685856549832901	0.5685856549833604	-0.1743030423957159	0.1745097046184452	-0.01258550362873127	-0.0558455769903554	0.7471564694634347	0.2781355515818248	0.4030696992887441	-2.118720823362276	0.06018744308764815	-0.489380406612476	0.5707987351375261	-1.426009969327169	-1.426009969327177	0.001934213067742259	-7.806028529431253e-05	-0.1191466995135412	0.05138588829467208	-0.2483998671543683	0.01888450944051661	-0.01810538187161743	-0.1747344951854319	0.1458793073912521	0.04431175659497456	0.2229044041729225	7.483377803329043	-23.58178160797944	6.814610378928471	-4.135416864676976	-613.783404152526	-62.26401891409995	-34.62736908220081	0.5281731322499484	0.597765857683254	-0.1983849001668502	-1.404315796214074	0.4172952380954796	-0.2294861803484047	1.591093153287324	-0.8709577038344334	-0.8709577038343447	0.02160346150776175	-0.0279903719689279	0.08105566793661222	0.4212673431178805	-1.722708420659604e-08	7.371594616683233e-07	-7.782338582052331e-08	1.232433500655272e-07	1.104023625215646e-07	2.231152205051125e-08	9.816603087513505e-08
1.51	-0.4403478304811221	-0.071546284331371	0.7868635290830484	1.16506272136887	-0.3073562856195321	-0.0950475606512783	-0.3312131748753937	0.554284045439527	0.5542840454396092	-0.1742835439425066	0.174508991537462	-0.01377278501816268	-0.05531135250595232	0.7522445226769223	0.2840352344356929	0.4008589329876089	-2.132060422486872	0.06422292860138233	-0.4916946834856445	0.586389138689426	-1.43411107455968	-1.434111074559664	0.001963548646510399	-6.629256352581081e-05	-0.1182789269009518	0.05546271237659234	-0.240637302792077	0.017871527323393	-0.01811930846369069	-0.1739382402497753	0.1457551386406338	0.04341572378893371	0.21695092617994	7.636232722999043	-23.32614408591641	6.895784094003105	-4.079633696041726	-610.0769986032781	-62.51550938258951	-35.26954451827298	0.4840490113064601	0.5814578717383323	-0.243976305032667	-1.25567467967061	0.3968121617258614	-0.2221539222528567	1.532450875768354	-0.7495775349556399	-0.749577534952227	-0.006552614789407884	0.0155624559831612	0.09423934301496859	0.4013304596348146	-2.12636320123623e-08	7.743687224942355e-07	-7.730270222522388e-08	1.276968513101862e-07	1.178730488304197e-07	3.152480496465476e-08	1.004708026055973e-07
1.52	-0.4328024569318282	-0.06867720131073829	0.7908591397579011	1.143682603870837	-0.3066938595151221	-0.09997436779169117	-0.3252730919841228	0.5399074467230608	0.5399074467231113	-0.1742637823777158	0.1745083565560095	-0.01495046842444702	-0.05473627167694844	0.7567296797066805	0.2897504521895717	0.3981860142887046	-2.143675729975018	0.06826389226364561	-0.4935991796168772	0.6015570190263848	-1.441007803872032	-1.441007803871991	0.001986835391276056	-6.244037242167068e-05	-0.1172271028845617	0.05955715721475376	-0.2328747384297571	0.0168585452063264	-0.0181332350560455	-0.1731419853140386	0.1456309698900507	0.04251969098295668	0.2109974481869578	7.780617256339782	-23.07047081316539	6.978605287536229	-4.002094205835496	-606.4984584319461	-62.80711876218899	-35.88580462728181	0.4075938955044826	0.5608728376852221	-0.2908153797207051	-1.059457468923968	0.418390867801245	-0.1475300319612518	1.50658851029935	-0.6300825198026132	-0.6300825198025375	0.02039369470717527	-0.02957347810175413	0.1178659486964992	0.4247914943660064	-2.379157905397223e-08	8.076479010328141e-07	-8.14209421432455e-08	1.29726678269841e-07	1.276728334945797e-07	4.067474586322349e-08	1.029259329154475e-07
1.53	-0.4252152622467587	-0.06575195331182884	0.7948257417671932	1.122194990066639	-0.3059910709829937	-0.104918229808573	-0.3191836441103205	0.5254679189304569	0.5254679189305252	-0.1742439018360421	0.174507781332773	-0.01611675535809714	-0.05412023654612561	0.7606029884839201	0.2952611806016641	0.3950592067717171	-2.153544937371601	0.07229038212146353	-0.495104503741441	0.6162460607919842	-1.446687869788827	-1.446687869788865	0.001986348739785291	-5.302928969805868e-05	-0.1160007030822885	0.06364856158821676	-0.2249543046622652	0.01568661110215078	-0.0181915255760354	-0.172413978425154	0.1456269755084487	0.04151239710065147	0.2048766462946569	7.962651272042458	-22.77530724367556	7.057687284373684	-3.923784042432127	-602.8736699026468	-63.04748031983991	-36.47344231083803	0.3612615811897041	0.5405035715970199	-0.3348612538366564	-0.9053338524634165	0.3941525326000341	-0.1416095349795406	1.437087768689877	-0.5055072867923749	-0.5055072868043701	-0.01056226535364073	0.01620412545493656	0.1294672388779184	0.4009967543003266	-2.471663778366608e-08	8.367513671411006e-07	-9.046803829417067e-08	1.291813513016786e-07	1.39947285161251e-07	4.975738587024399e-08	1.055408192158975e-07
1.54	-0.4175925220314229	-0.06277273188307311	0.7987588261380858	1.100617747893004	-0.305248142654721	-0.1098750602531471	-0.3129499006670585	0.5109778827468588	0.5109778827469244	-0.1742240846449455	0.174507301365156	-0.01726989024514606	-0.05346335100247493	0.763838785755341	0.3005451381588263	0.391482486608833	-2.161601403865718	0.07629185149239556	-0.4961928651570244	0.6304161329175451	-1.451109482072591	-1.451109482072709	0.001974165277263548	-4.338924715819703e-05	-0.1145966935646023	0.06772723978024776	-0.2170338708947522	0.01451467699801529	-0.01824981609607686	-0.1716859715362279	0.145622981126873	0.04050510321839099	0.1987558444023548	8.136749144517482	-22.47992205951768	7.138068008965591	-3.82494619577932	-599.3687826105771	-63.32749607539868	-37.03110730859098	0.2800915943411937	0.5155186666989566	-0.3807979089000885	-0.6969092884308735	0.4133867704240229	-0.0641374901651669	1.402794582291915	-0.37839179319649	-0.37839179319649	0.01805433250093236	-0.02952768613847854	0.153387891778792	0.4222462580795089	-2.204734786422972e-08	8.571969199199115e-07	-1.094383144579329e-07	1.240588738339148e-07	1.567945002523815e-07	5.81280491027426e-08	1.087673488006892e-07
1.55	-0.4099406319821018	-0.05974187849663649	0.8026539387681212	1.078969009187913	-0.3044653982306542	-0.1148406579006686	-0.3065772672700318	0.4964498513537643	0.496449851353809	-0.1742045780050639	0.1745068664174111	-0.01840818318955509	-0.05276582739633761	0.7664275608141928	0.3055799805439445	0.3874675591305441	-2.167829116416935	0.08024914659497796	-0.4968580849263219	0.6440066510676807	-1.454277555442593	-1.454277555442638	0.001925536580884827	-4.206409602021575e-05	-0.1130338682317412	0.07177170040744527	-0.2089880014426109	0.01318182155384132	-0.01835649905821386	-0.1710582030645957	0.1457440144292441	0.03939910170386325	0.1924943675285096	8.345936937132638	-22.14941163920081	7.214675813736327	-3.714363173718088	-595.8818596345305	-63.56619569790951	-37.5589471972558	0.2315230640047167	0.4906548133645174	-0.4226739682241096	-0.5381140472665706	0.3856091083869355	-0.05730341888416977	1.32159611871618	-0.2531519197067927	-0.2531519196960589	-0.01642076046074594	0.01527529723770633	0.161936872048799	0.3945605247980948	-1.523674319688268e-08	8.676670508191101e-07	-1.398418197669197e-07	1.136627229644366e-07	1.789103340716931e-07	6.567839126894428e-08	1.126985978217877e-07
